<?xml version="1.0" standalone="no"?>
<!DOCTYPE svg PUBLIC "-//W3C//DTD SVG 20010904//EN"
 "http://www.w3.org/TR/2001/REC-SVG-20010904/DTD/svg10.dtd">
<svg version="1.0" xmlns="http://www.w3.org/2000/svg"
 width="558.000000pt" height="558.000000pt" viewBox="0 0 558.000000 558.000000"
 preserveAspectRatio="xMidYMid meet">
<metadata>
Created by potrace 1.14, written by Peter Selinger 2001-2017
</metadata>
<g transform="translate(0.000000,558.000000) scale(0.100000,-0.100000)"
fill="#000000" stroke="none">
<path d="M779 3853 c-31 -12 -45 -30 -95 -120 -72 -130 -89 -160 -137 -241
-20 -35 -37 -67 -37 -72 0 -4 -4 -10 -9 -12 -4 -1 -24 -31 -42 -65 -30 -56
-185 -324 -209 -363 -9 -14 -108 -185 -158 -273 -27 -47 -35 -88 -23 -119 11
-27 46 -70 58 -69 4 1 16 -2 26 -5 44 -14 106 27 139 92 8 16 24 46 36 67 12
20 32 54 43 75 12 20 38 66 59 102 21 36 48 83 60 105 13 22 31 54 41 70 10
17 23 40 28 52 5 11 15 24 21 28 5 3 8 11 5 16 -4 5 -1 9 4 9 6 0 11 6 11 13
0 7 9 23 20 35 11 12 20 24 20 28 0 3 15 32 34 63 34 56 57 96 104 181 40 74
46 77 71 35 11 -20 21 -43 21 -51 0 -8 3 -14 8 -14 4 0 19 -21 32 -47 14 -27
28 -50 31 -53 10 -9 109 -182 109 -191 0 -5 4 -9 8 -9 8 0 34 -47 34 -60 0 -3
5 -12 13 -20 7 -8 25 -37 41 -65 41 -75 58 -105 93 -163 17 -29 31 -55 31 -57
0 -2 23 -41 50 -86 28 -45 50 -88 50 -95 0 -19 55 -54 90 -59 57 -7 90 22 158
141 34 60 67 119 72 132 5 12 15 22 21 22 7 0 9 3 6 7 -4 3 0 17 9 30 37 58
174 296 174 304 0 5 4 9 10 9 5 0 9 3 8 8 -1 4 14 35 35 70 20 35 37 67 37 71
0 5 6 13 13 19 11 9 13 -69 13 -442 1 -351 4 -461 14 -485 24 -59 110 -82 167
-45 47 30 47 35 49 494 1 239 3 441 3 449 1 15 51 -45 51 -61 0 -4 22 -45 49
-90 116 -197 182 -312 254 -438 97 -170 112 -189 159 -197 70 -11 105 18 172
141 13 22 42 73 64 113 23 40 42 77 42 82 0 5 4 11 8 13 10 4 78 121 73 127
-1 2 1 7 6 10 5 3 28 40 51 81 24 41 50 86 58 100 8 14 18 33 21 43 3 9 9 17
14 17 5 0 9 6 9 13 0 8 9 24 20 37 22 26 21 30 24 -62 1 -29 -2 -65 -5 -80 -4
-14 -5 -29 -1 -32 9 -9 8 -226 -1 -226 -4 0 -4 -8 2 -17 5 -10 5 -26 1 -39 -5
-12 -6 -25 -3 -28 10 -9 10 -69 1 -88 -5 -11 -5 -18 0 -18 5 0 6 -17 2 -39 -4
-22 -4 -45 0 -51 6 -9 5 -75 -1 -105 -1 -6 0 -14 1 -20 1 -5 3 -23 5 -40 4
-52 15 -72 53 -92 62 -34 141 -10 162 48 3 8 6 220 8 472 1 290 6 457 12 457
6 0 10 -5 10 -10 0 -6 11 -27 24 -48 24 -37 217 -368 264 -452 175 -313 183
-321 282 -298 21 4 49 37 64 73 10 24 155 279 196 345 8 13 37 64 115 200 72
125 109 185 117 188 4 2 8 7 8 12 0 14 101 180 110 180 8 0 18 -17 88 -140 14
-25 29 -48 34 -51 6 -3 10 -10 10 -15 -1 -5 13 -31 31 -59 17 -27 31 -52 32
-55 0 -3 9 -18 19 -35 34 -54 47 -76 78 -134 17 -31 37 -63 44 -72 8 -8 14
-18 14 -21 0 -4 25 -50 55 -103 30 -54 55 -101 55 -106 0 -5 5 -9 10 -9 6 0
10 -5 10 -11 0 -6 9 -24 21 -40 11 -16 18 -29 14 -29 -3 0 5 -15 19 -33 15
-19 26 -38 26 -43 1 -15 48 -45 73 -46 53 -2 71 4 98 33 37 39 39 97 7 149
-12 19 -27 44 -34 55 -6 11 -23 40 -38 65 -14 25 -32 57 -38 73 -7 15 -16 27
-20 27 -4 0 -8 4 -8 9 0 5 -17 38 -38 72 -21 35 -49 84 -63 109 -13 25 -26 47
-29 50 -4 4 -75 126 -175 302 -5 10 -48 84 -95 165 -47 81 -90 157 -95 170
-16 34 -69 69 -102 67 -15 -1 -28 -3 -28 -4 0 -1 -8 -3 -17 -5 -24 -4 -40 -22
-69 -75 -13 -25 -26 -47 -29 -50 -3 -3 -11 -16 -18 -30 -30 -58 -48 -91 -60
-107 -7 -10 -20 -32 -30 -49 -30 -54 -153 -268 -162 -284 -24 -37 -184 -317
-194 -337 -6 -13 -14 -23 -18 -23 -5 0 -8 -9 -8 -19 0 -47 -30 -33 -62 29 -7
14 -15 27 -18 30 -3 3 -12 17 -20 32 -8 15 -51 89 -95 164 -44 75 -87 148 -95
163 -8 14 -25 42 -37 61 -21 34 -65 116 -107 195 -12 22 -24 42 -28 43 -5 2
-8 8 -8 13 0 5 -17 37 -38 72 -20 34 -43 74 -50 88 -19 35 -53 74 -77 86 -30
16 -91 9 -115 -12 -21 -19 -110 -161 -110 -176 0 -5 -5 -9 -12 -9 -6 0 -8 -3
-5 -6 4 -4 -2 -19 -12 -33 -10 -14 -46 -75 -81 -136 -34 -60 -115 -200 -178
-310 -63 -110 -120 -209 -126 -220 -6 -11 -17 -28 -25 -37 -8 -10 -11 -18 -7
-18 4 0 -2 -10 -14 -22 -20 -21 -20 -21 -35 -2 -8 10 -15 22 -15 26 0 4 -18
37 -40 73 -22 36 -40 70 -40 75 0 6 -4 10 -10 10 -5 0 -10 6 -10 14 0 7 -7 19
-15 26 -9 7 -13 15 -10 18 3 3 -1 12 -8 21 -8 9 -45 70 -82 136 -38 66 -80
138 -93 160 -14 22 -24 40 -21 40 2 0 -7 16 -21 35 -33 46 -56 87 -76 133 -9
20 -20 37 -25 37 -5 0 -9 7 -9 15 0 26 -88 151 -115 163 -14 7 -42 9 -63 6
-42 -6 -92 -53 -119 -116 -9 -21 -20 -38 -24 -38 -4 0 -11 -9 -14 -21 -6 -18
-187 -338 -215 -379 -6 -8 -13 -22 -17 -30 -4 -8 -24 -43 -45 -78 -21 -34 -38
-66 -38 -70 0 -5 -8 -17 -18 -28 -9 -10 -23 -30 -29 -44 -34 -69 -122 -210
-131 -209 -4 0 -20 27 -36 60 -16 32 -34 59 -39 59 -6 0 -7 3 -4 7 4 3 3 11
-2 17 -9 10 -198 337 -258 446 -14 25 -35 61 -47 80 -40 67 -67 115 -73 133
-3 9 -10 17 -15 17 -5 0 -6 5 -3 10 3 6 2 10 -3 10 -5 0 -19 24 -31 53 -35 78
-36 79 -63 100 -34 25 -65 28 -109 10z"/>
<path d="M476 1934 c-9 -8 -19 -31 -23 -52 -9 -46 -8 -42 -20 -72 l-11 -25 -7
30 c-26 109 -31 120 -60 123 -15 2 -31 -2 -35 -8 -11 -18 -9 -220 3 -227 19
-12 34 27 32 83 -1 30 1 57 5 59 3 2 12 -19 20 -48 18 -72 30 -95 47 -93 20 3
28 20 43 89 7 31 16 57 20 57 4 0 7 -21 7 -47 0 -97 1 -102 23 -96 19 5 20 12
18 116 -3 103 -4 110 -25 118 -16 6 -27 4 -37 -7z"/>
<path d="M749 1940 c-20 -12 -93 -204 -85 -225 9 -23 23 -18 37 15 15 32 26
37 79 32 30 -3 38 -9 48 -34 9 -26 13 -28 31 -18 l21 10 -22 53 c-47 118 -54
133 -66 155 -14 24 -19 26 -43 12z m39 -107 c12 -35 6 -44 -24 -38 -10 2 -22
4 -26 4 -4 1 -5 7 -3 14 28 78 33 80 53 20z"/>
<path d="M1028 1942 c-33 -4 -36 -15 -36 -134 0 -65 4 -90 15 -99 20 -17 33 4
33 53 0 65 34 61 83 -11 18 -26 38 -46 46 -46 25 0 20 32 -11 74 -21 29 -25
41 -15 41 18 0 40 26 44 51 1 10 -7 30 -20 44 -22 26 -70 35 -139 27z m104
-56 c14 -25 -13 -46 -59 -46 -31 0 -33 2 -33 33 0 32 1 33 41 33 29 -1 43 -6
51 -20z"/>
<path d="M1330 1940 c-19 -12 -22 -203 -4 -228 26 -35 38 2 38 113 0 106 -7
132 -34 115z"/>
<path d="M1508 1942 c-16 -2 -28 -9 -28 -18 0 -15 1 -15 38 -19 12 -1 26 -5
29 -9 4 -4 8 -45 8 -91 0 -53 5 -89 13 -97 23 -23 34 8 34 101 1 60 5 91 12
92 60 4 76 13 59 30 -10 10 -113 17 -165 11z"/>
<path d="M1837 1932 c-10 -10 -17 -23 -17 -28 0 -5 -16 -47 -35 -94 -25 -62
-31 -88 -23 -97 16 -20 24 -16 38 17 11 26 18 30 51 30 22 0 42 1 47 3 4 1 14
-11 22 -28 16 -32 43 -40 48 -15 3 20 -75 212 -91 222 -18 11 -22 10 -40 -10z
m43 -88 c7 -19 10 -38 7 -40 -7 -7 -57 -13 -57 -6 0 17 24 82 31 82 4 0 13
-16 19 -36z"/>
<path d="M2108 1942 c-16 -3 -18 -17 -18 -117 0 -88 3 -114 14 -118 22 -9 26
2 26 70 0 92 15 84 36 -20 16 -78 52 -73 73 8 7 28 15 58 18 68 10 37 18 14
16 -45 -2 -65 10 -96 32 -78 18 15 15 218 -4 229 -31 20 -55 -4 -75 -73 -17
-60 -35 -86 -37 -53 -1 23 -9 62 -20 93 -10 32 -29 43 -61 36z"/>
<path d="M2524 1942 c-10 -7 -83 -180 -89 -214 -6 -31 25 -29 43 2 13 22 25
30 47 31 17 0 38 2 47 4 10 2 18 -6 22 -21 4 -13 15 -28 26 -34 37 -20 34 15
-10 122 -46 113 -59 129 -86 110z m35 -98 c11 -30 11 -38 0 -45 -17 -11 -21
-11 -36 -1 -12 7 -12 17 2 60 10 31 19 28 34 -14z"/>
<path d="M3182 1938 c-20 -5 -40 -21 -52 -41 -21 -34 -27 -111 -10 -122 6 -4
8 -10 5 -15 -8 -13 50 -53 82 -56 41 -5 92 14 110 42 19 30 26 96 12 131 -10
28 -45 63 -63 64 -6 0 -20 2 -31 4 -11 1 -35 -1 -53 -7z m87 -55 c21 -26 28
-86 13 -110 -4 -6 -21 -19 -36 -27 -27 -14 -32 -13 -58 5 -24 18 -28 27 -28
70 0 56 19 83 62 86 19 2 33 -5 47 -24z"/>
<path d="M3522 1935 c-76 -32 -91 -145 -27 -205 32 -30 118 -34 158 -7 24 15
27 24 25 60 l-3 42 -50 0 c-38 0 -50 -4 -50 -15 0 -8 7 -16 15 -16 8 -1 23 -2
33 -3 26 -2 20 -29 -10 -44 -60 -29 -108 7 -107 80 0 35 5 50 23 64 31 26 64
24 92 -5 25 -26 49 -24 49 5 0 42 -89 68 -148 44z"/>
<path d="M3822 1938 c-18 -18 -16 -224 1 -231 27 -10 34 10 35 114 1 77 -2
110 -11 118 -10 8 -17 7 -25 -1z"/>
<path d="M4047 1943 c-18 -3 -32 -15 -43 -34 -27 -53 -11 -71 92 -109 21 -8
31 -17 29 -28 -2 -9 -4 -20 -4 -23 -1 -4 -13 -9 -28 -12 -21 -4 -33 2 -54 24
-33 36 -49 37 -49 4 0 -33 42 -59 96 -59 53 0 84 25 84 68 0 43 -8 51 -65 70
-64 22 -79 34 -64 52 17 20 57 17 76 -6 20 -23 39 -26 46 -6 6 16 -27 56 -48
56 -7 0 -19 2 -27 3 -7 2 -25 2 -41 0z"/>
<path d="M4308 1942 c-14 -2 -29 -10 -32 -18 -6 -16 -5 -16 44 -18 l34 -2 1
-92 c0 -60 4 -95 13 -104 26 -26 39 32 32 150 -1 23 2 42 7 43 28 2 66 8 69
11 21 21 -83 40 -168 30z"/>
<path d="M4602 1938 c-18 -18 -17 -224 1 -231 27 -10 33 10 34 110 1 106 -10
146 -35 121z"/>
<path d="M4820 1928 c-65 -39 -73 -144 -15 -198 28 -26 89 -33 126 -14 27 13
49 51 42 72 -7 19 -31 14 -38 -8 -14 -45 -93 -50 -112 -7 -14 31 -9 81 10 111
24 35 62 34 94 -3 32 -37 56 -32 42 8 -7 19 -23 34 -47 44 -46 19 -64 19 -102
-5z"/>
<path d="M5131 1929 c-57 -35 -28 -107 47 -116 15 -2 35 -13 45 -25 16 -18 16
-23 3 -37 -24 -26 -53 -22 -81 11 -16 18 -31 28 -41 24 -13 -5 -13 -9 1 -36
19 -37 46 -49 99 -45 43 4 70 27 74 67 4 35 -25 64 -80 79 -48 12 -62 27 -46
46 16 20 61 16 76 -7 15 -25 42 -26 42 -2 0 50 -84 74 -139 41z"/>
<path d="M2851 1831 c-2 -97 0 -111 16 -119 20 -10 139 -9 150 2 14 14 -19 30
-65 31 l-47 0 -5 95 c-5 88 -7 95 -26 98 -21 3 -22 -1 -23 -107z"/>
</g>
</svg>
